# xmcd CD database file
#
# Track frame offsets:
#	150
#	48179
#	82141
#	123056
#	157500
#
# Disc length: 2758 seconds
#
# Revision: 0
# Processed by: cddbd v1.5.2PL0 Copyright (c) Steve Scherf et al.
# Submitted via: CDex 1.51
#
DISCID=2b0ac405
DTITLE=Auer,Martin Quintett - Our Kind Of...
DYEAR=2015
DGENRE=Jazz
TTITLE0=So What
TTITLE1=Blue In Green
TTITLE2=Flamenco Sketches
TTITLE3=Freddie Freeloader
TTITLE4=All Blues
EXTD=YEAR: 2015
EXTT0=
EXTT1=
EXTT2=
EXTT3=
EXTT4=
PLAYORDER=
